<?xml version="1.0" standalone="no"?>
<!DOCTYPE svg PUBLIC "-//W3C//DTD SVG 20010904//EN"
 "http://www.w3.org/TR/2001/REC-SVG-20010904/DTD/svg10.dtd">
<svg version="1.0" xmlns="http://www.w3.org/2000/svg"
 width="595.000000pt" height="595.000000pt" viewBox="0 0 595.000000 595.000000"
 preserveAspectRatio="xMidYMid meet">

<g transform="translate(0.000000,595.000000) scale(0.100000,-0.100000)"
fill="#000000" stroke="none">
<path d="M1918 5551 c-26 -10 -62 -28 -81 -40 -45 -27 -87 -111 -87 -173 0
-38 -5 -50 -26 -67 -26 -20 -38 -21 -313 -21 l-287 0 -45 -28 c-87 -56 -131
-216 -147 -544 -5 -88 -11 -142 -19 -150 -17 -16 -16 -49 2 -84 19 -37 19
-108 0 -181 -18 -66 -32 -127 -45 -193 -5 -25 -14 -67 -20 -95 -11 -55 -25
-141 -39 -239 -5 -39 -17 -76 -30 -95 -20 -27 -28 -31 -71 -31 -56 0 -154 -33
-187 -63 -34 -31 -66 -106 -75 -177 -9 -64 -20 -203 -35 -415 -5 -60 -12 -116
-17 -124 -10 -16 -15 -133 -19 -451 -2 -197 -1 -207 21 -252 33 -67 97 -130
165 -163 31 -15 60 -31 62 -35 3 -4 19 -11 37 -14 48 -10 61 -23 103 -108 36
-75 102 -147 192 -214 41 -31 168 -75 243 -84 35 -5 66 -13 68 -19 3 -8 229
-11 750 -11 l747 0 47 -25 c26 -14 61 -25 78 -25 17 0 45 -7 62 -16 38 -20 92
-11 113 18 14 22 15 22 29 3 7 -10 26 -20 41 -22 15 -2 37 -11 49 -19 25 -16
139 -18 168 -3 9 5 20 19 24 31 l6 21 19 -24 c10 -13 19 -21 19 -16 0 4 12 1
28 -6 18 -9 61 -13 131 -11 89 1 107 4 119 20 27 36 43 85 37 117 -5 24 -1 37
15 55 27 28 32 28 131 -7 46 -16 87 -27 92 -24 5 3 13 0 17 -7 4 -7 20 -12 34
-12 15 -1 29 -4 32 -9 3 -5 15 -9 27 -9 12 0 44 -11 71 -25 27 -13 54 -21 61
-19 16 6 83 -31 113 -62 12 -13 35 -26 50 -30 15 -3 37 -11 50 -17 12 -6 44
-11 71 -11 39 -1 55 4 75 23 l25 24 18 -21 c16 -19 30 -22 131 -24 112 -3 114
-3 137 24 23 27 23 27 41 7 10 -11 24 -17 31 -15 7 3 13 1 13 -4 0 -6 18 -10
40 -10 23 0 40 5 40 11 0 8 15 9 46 4 43 -6 47 -4 78 28 28 30 35 33 50 21 10
-7 24 -10 31 -8 7 3 16 1 20 -5 7 -12 48 -15 59 -4 3 4 26 8 51 9 53 2 92 25
101 59 5 21 9 23 21 13 9 -7 31 -18 51 -25 30 -10 43 -9 91 9 33 13 73 37 97
62 l41 41 2 90 c1 55 -4 114 -14 150 -8 32 -15 73 -15 90 0 53 -85 235 -111
235 -5 0 -7 6 -3 13 4 6 4 9 0 6 -4 -4 -35 8 -69 25 -34 18 -103 43 -152 55
-50 12 -104 26 -121 31 -17 6 -39 10 -50 10 -35 0 -218 66 -258 94 -21 14 -44
26 -51 26 -6 0 -22 11 -35 25 -12 13 -26 22 -30 20 -10 -6 -111 61 -145 98
-17 17 -46 43 -65 57 -52 38 -79 70 -107 125 -14 28 -31 53 -37 57 -6 4 -7 8
-2 8 6 0 2 6 -8 13 -13 10 -18 32 -22 102 -2 49 -10 104 -16 122 -9 26 -9 44
2 85 8 29 14 96 13 148 0 65 4 101 13 115 16 22 18 66 5 81 -5 5 -14 25 -20
45 -15 46 -55 84 -110 104 -49 17 -117 20 -126 5 -3 -5 -19 -10 -36 -10 -35 0
-171 -35 -214 -55 -55 -25 -120 -45 -148 -45 -29 0 -101 32 -112 50 -18 28
-92 53 -164 54 -67 1 -75 4 -97 29 -15 17 -24 41 -24 60 0 18 -7 43 -16 56
-12 16 -15 35 -11 66 5 32 2 46 -9 56 -12 10 -15 24 -11 54 4 27 1 51 -9 69
-8 16 -13 34 -13 40 1 6 -3 24 -9 39 -7 16 -11 41 -10 57 1 15 -4 35 -11 44
-7 9 -11 26 -8 38 4 12 1 29 -6 37 -8 10 -12 67 -12 191 0 137 -3 181 -14 194
-11 12 -12 35 -8 95 5 57 3 83 -7 97 -10 13 -13 48 -12 112 0 54 -3 96 -9 100
-6 4 -18 32 -28 63 -10 31 -24 62 -32 69 -8 7 -15 18 -15 25 0 7 -19 24 -42
36 -42 23 -53 24 -323 29 l-281 5 -26 25 c-14 14 -33 48 -42 77 -10 29 -27 67
-40 85 -12 18 -25 41 -29 51 -4 10 -33 30 -64 45 -55 26 -66 27 -228 29 -143
1 -177 -1 -217 -16z m386 -82 c59 -35 96 -75 112 -123 15 -44 15 -46 -8 -71
l-24 -26 -254 3 c-192 2 -254 6 -258 16 -2 6 -12 12 -22 12 -42 0 -28 81 24
138 44 49 72 57 236 62 85 4 156 7 157 8 1 1 18 -7 37 -19z m802 -318 c60 -37
73 -74 101 -284 17 -131 25 -244 25 -357 1 -152 -1 -172 -26 -255 -51 -167
-120 -267 -245 -349 -93 -62 -189 -101 -308 -125 -93 -19 -136 -21 -537 -21
-475 0 -508 3 -666 59 -282 100 -431 310 -447 632 -9 181 34 576 71 647 8 16
28 40 42 51 27 21 28 21 993 21 930 0 967 -1 997 -19z m207 -1181 c48 -261 74
-474 60 -483 -5 -3 -56 -11 -114 -16 -183 -19 -189 -20 -235 -63 -56 -52 -73
-100 -76 -223 l-3 -100 -252 -5 c-236 -5 -253 -6 -280 -26 -15 -12 -37 -36
-48 -55 -19 -33 -20 -51 -19 -439 0 -442 2 -454 57 -517 53 -60 94 -73 236
-73 l123 0 -6 -25 c-14 -57 -36 -234 -36 -297 l0 -68 -742 0 c-819 0 -813 0
-932 62 -78 42 -184 147 -218 218 -48 100 -58 225 -38 455 5 61 16 229 24 375
52 900 70 1086 133 1364 l15 69 36 -69 c49 -92 172 -215 272 -271 140 -78 310
-122 513 -130 l127 -6 0 -63 c0 -59 -2 -64 -27 -76 l-28 -13 0 -145 0 -145 56
-3 57 -3 6 -40 c20 -128 121 -195 206 -137 41 28 75 85 84 139 l6 38 58 3 57
3 0 145 c0 141 -1 145 -22 155 -20 8 -23 17 -23 62 0 28 -3 58 -6 67 -5 14 6
16 82 16 205 0 423 54 572 141 88 52 210 180 252 265 19 39 38 68 41 65 3 -3
18 -71 32 -151z m-1077 -386 l-1 -67 -109 2 c-61 1 -113 4 -116 6 -4 2 -8 31
-9 65 l-2 60 119 0 120 0 -2 -66z m-1480 -156 c-3 -57 -9 -145 -13 -197 l-6
-94 -81 7 c-45 4 -96 10 -115 14 l-35 8 3 59 c5 109 21 208 38 238 27 45 77
67 152 67 l64 0 -7 -102z m2890 92 c15 -6 25 -12 23 -14 -2 -2 -46 -6 -96 -9
-88 -6 -93 -6 -93 13 0 18 7 20 69 20 38 0 82 -5 97 -10z m751 -14 c26 -22 28
-30 26 -88 -1 -35 -6 -94 -10 -133 l-8 -70 -32 1 c-18 0 -77 1 -131 2 l-99 2
-17 79 c-9 43 -28 100 -41 127 -14 27 -25 50 -25 51 0 2 87 28 140 42 19 5 65
10 102 10 57 1 71 -3 95 -23z m-418 -101 c17 -15 36 -45 44 -73 21 -64 29
-102 22 -102 -35 0 -203 -24 -215 -30 -9 -5 -28 -26 -43 -47 -24 -35 -26 -42
-16 -78 25 -92 87 -132 217 -142 75 -5 81 -8 87 -31 3 -13 5 -25 3 -26 -2 -2
-28 -8 -57 -14 -110 -25 -191 -86 -191 -143 0 -40 42 -112 80 -137 32 -22 42
-23 110 -17 41 3 93 10 114 15 33 7 42 6 53 -8 17 -24 17 -27 -16 -64 -65 -75
-77 -141 -38 -199 25 -38 76 -56 123 -45 17 4 53 33 84 67 53 56 57 58 77 44
21 -15 21 -15 2 -52 -44 -86 -8 -177 74 -190 36 -5 41 -3 92 50 l55 56 42 -19
c66 -30 86 -26 158 35 35 30 68 55 72 55 5 0 28 -10 51 -21 67 -35 169 -66
318 -99 210 -46 247 -60 311 -118 52 -47 68 -79 75 -157 l6 -64 -84 -25 c-300
-91 -651 -134 -938 -116 -163 10 -305 38 -496 96 -162 49 -300 81 -409 94 -85
11 -97 15 -100 34 -2 11 -11 66 -20 121 -33 204 -91 324 -215 445 -79 77 -207
152 -305 177 l-68 18 7 95 c4 52 8 96 9 97 1 1 77 9 169 18 250 23 304 39 346
108 29 47 51 145 51 226 0 151 45 188 237 190 84 1 94 -1 122 -24z m-1679 -45
l0 -60 -180 0 -180 0 0 60 0 60 180 0 180 0 0 -60z m1245 23 c-15 -37 -25 -90
-25 -140 0 -80 -19 -152 -49 -185 -26 -29 -34 -31 -221 -59 -107 -16 -198 -29
-202 -29 -5 0 -8 66 -8 148 0 128 3 151 20 179 35 58 55 64 243 79 94 8 183
15 197 17 51 8 52 8 45 -10z m-1379 -215 c-13 -66 -61 -84 -85 -32 -23 52 -16
64 40 64 l52 0 -7 -32z m1898 -54 c3 -9 6 -34 6 -56 l0 -40 -52 7 c-106 13
-151 35 -146 69 2 17 12 22 48 27 91 12 138 10 144 -7z m328 -55 l3 -61 -50 6
c-27 3 -78 8 -112 11 -66 7 -73 14 -73 78 l0 27 114 0 114 0 4 -61z m-3729
-16 l67 -6 0 -32 c0 -18 -4 -90 -10 -161 -19 -245 -40 -629 -41 -732 -1 -101
-1 -103 -22 -96 -87 27 -175 104 -197 174 -9 28 -13 80 -12 140 2 108 30 545
37 575 2 11 5 51 6 89 l2 68 51 -6 c28 -4 81 -9 119 -13z m2285 -148 c2 -44
-2 -117 -8 -162 -10 -70 -15 -82 -33 -87 -12 -3 -86 -6 -165 -6 -169 0 -191 7
-252 80 -42 50 -44 55 -48 131 -4 62 -1 84 12 104 l17 25 237 -2 237 -3 3 -80z
m1287 15 c3 -5 0 -10 -7 -10 -7 0 -23 -3 -35 -6 -17 -5 -23 -2 -23 10 0 18 54
23 65 6z m180 -102 c9 -47 10 -65 1 -71 -15 -10 -103 -34 -147 -40 -35 -5 -37
-4 -48 35 -7 22 -14 45 -17 52 -3 7 21 20 63 34 37 12 81 31 98 42 16 10 31
17 33 15 2 -2 9 -32 17 -67z m-287 -79 c7 -29 11 -53 9 -55 -1 -1 -37 -6 -79
-10 -64 -5 -82 -4 -103 10 -49 32 -28 60 68 87 92 26 92 26 105 -32z m421
-151 l33 -38 -37 -42 c-21 -24 -42 -47 -46 -52 -7 -8 -84 44 -143 95 -5 4 20
35 55 68 l64 60 20 -27 c11 -15 35 -44 54 -64z m-2024 -15 c31 -13 77 -18 203
-21 147 -4 163 -6 156 -21 -37 -87 -86 -277 -91 -358 l-6 -93 -137 0 c-125 0
-138 2 -159 21 -46 43 -51 73 -51 310 l0 222 23 -21 c12 -11 40 -29 62 -39z
m576 11 c133 -38 295 -173 356 -294 55 -109 105 -360 72 -360 -65 1 -370 22
-429 31 -86 12 -167 35 -195 55 -15 11 -18 27 -18 101 0 105 11 164 65 326 58
177 50 170 149 141z m1208 -131 c8 -6 -73 -83 -86 -83 -7 0 -13 2 -13 4 0 2
-3 11 -6 20 -4 10 8 28 32 50 31 28 41 33 54 23 8 -6 17 -13 19 -14z m433 -19
c40 -26 75 -48 77 -50 6 -5 -40 -54 -61 -65 -13 -7 -38 1 -98 31 -44 22 -80
44 -80 48 0 11 70 82 81 82 5 0 41 -21 81 -46z m-196 -135 c10 -17 -33 -56
-47 -42 -8 8 -8 17 0 32 13 23 36 28 47 10z m-1643 -392 c68 -31 178 -47 426
-62 414 -25 565 -48 803 -124 137 -43 269 -73 413 -92 134 -17 498 -6 652 20
188 32 352 69 433 96 86 29 90 27 90 -57 0 -50 -4 -60 -31 -87 -16 -17 -48
-36 -69 -42 -37 -11 -41 -11 -64 14 -16 18 -35 27 -55 27 -45 0 -60 -9 -81
-50 -18 -34 -26 -40 -75 -50 -54 -11 -55 -11 -78 16 -32 37 -92 37 -124 -1
-13 -14 -23 -33 -23 -41 0 -9 -10 -14 -27 -14 -16 0 -44 -3 -63 -6 -31 -5 -37
-2 -49 19 -31 59 -116 56 -147 -4 -13 -26 -20 -29 -63 -29 -27 0 -55 -2 -63
-5 -7 -2 -22 10 -33 27 -11 18 -33 35 -48 39 -35 9 -84 -7 -98 -32 -7 -15 -21
-19 -57 -19 -68 0 -85 8 -102 43 -13 28 -24 34 -85 51 -38 10 -155 47 -260 82
-224 75 -260 82 -302 61 -40 -21 -60 -54 -68 -113 -13 -102 -5 -94 -100 -94
-53 0 -85 4 -85 10 0 6 -11 22 -25 35 -36 37 -80 33 -121 -10 -34 -36 -58 -42
-122 -29 -21 4 -38 17 -51 40 -33 55 -108 59 -135 6 -13 -26 -16 -27 -86 -24
-55 3 -73 7 -77 20 -3 10 -11 24 -18 32 -20 25 -25 74 -15 157 13 114 31 214
39 210 3 -1 23 -11 44 -20z m517 -427 c0 -16 -7 -20 -30 -20 -22 0 -30 5 -30
18 0 10 5 23 12 30 16 16 48 -3 48 -28z"/>
<path d="M1096 3060 c-15 -5 -37 -17 -48 -27 -46 -41 -48 -58 -48 -498 0 -392
1 -418 19 -454 22 -42 80 -97 118 -112 13 -5 150 -9 304 -9 230 0 286 3 317
16 47 19 88 58 115 109 21 39 22 52 25 460 3 381 2 423 -14 452 -36 69 -31 68
-414 70 -190 1 -358 -2 -374 -7z m705 -112 c8 -14 9 -47 4 -102 -6 -75 -10
-85 -48 -135 -62 -80 -72 -83 -329 -79 l-221 3 -53 59 -54 59 0 93 c0 71 4 96
16 108 13 14 59 16 344 16 327 0 329 0 341 -22z m-17 -824 c-31 -66 -47 -69
-346 -69 l-266 0 -27 25 c-49 46 -50 52 -50 292 0 126 1 228 3 228 2 0 19 -12
39 -27 30 -23 48 -28 136 -34 56 -4 110 -8 119 -8 15 -1 18 -14 20 -93 l3 -93
40 0 40 0 3 91 3 91 94 6 c97 7 155 26 186 63 12 15 14 -11 17 -210 2 -194 0
-232 -14 -262z"/>
</g>
</svg>
